<svg t="1719540698647" class="icon" viewBox="0 0 1024 1024" version="1.1" xmlns="http://www.w3.org/2000/svg" p-id="1180" width="200" height="200"><path d="M1002.882524 187.872077q-10.0669 11.433122-18.91139 20.133799l-15.100349 15.10035a172.072078 172.072078 0 0 1-13.877941 12.655531L784.934147 64.48065q10.0669-10.0669 25.167249-23.94484t25.167249-21.571928a74.207432 74.207432 0 0 1 54.217445-17.473262 130.58207 130.58207 0 0 1 46.595364 11.361216 171.137294 171.137294 0 0 1 42.209072 35.234148 200.115584 200.115584 0 0 1 35.953214 52.995036 161.933272 161.933272 0 0 1 8.197332 41.561915 56.94989 56.94989 0 0 1-19.558548 45.301048zM521.612814 327.873888L716.910667 132.504129l170.058698 170.058697Q779.900697 409.631495 691.671512 496.350645q-37.82278 36.528464-73.704087 72.409771t-65.506754 64.212439q-29.625448 28.331132-48.536838 47.242522l-22.650524 22.650524a216.150717 216.150717 0 0 1-20.133799 17.617074 125.260994 125.260994 0 0 1-25.167249 15.10035q-13.87794 6.327766-38.398032 15.100349t-51.053563 17.041823q-26.461565 8.197333-50.334498 15.10035a223.916611 223.916611 0 0 1-36.672277 8.341145q-23.94484 2.516725-25.814407-4.386292a96.066985 96.066985 0 0 1 1.869567-30.919763q1.294316-12.511718 6.327765-37.103716T251.67609 668.926068q5.03345-25.167249 10.714058-47.242522a242.03703 242.03703 0 0 1 9.419742-30.919764 157.043635 157.043635 0 0 1 13.230782-23.872933 167.757692 167.757692 0 0 1 19.558548-22.650524z m427.124171 182.929949a106.709136 106.709136 0 0 1 50.334499 12.583624 52.851223 52.851223 0 0 1 23.94484 51.628814v285.971857a157.259354 157.259354 0 0 1-13.230783 64.715783 165.38478 165.38478 0 0 1-35.953213 51.628814 162.508523 162.508523 0 0 1-51.628814 34.01174 153.807846 153.807846 0 0 1-59.250895 11.936467H159.995397a141.224221 141.224221 0 0 1-59.178989-13.230783 167.613879 167.613879 0 0 1-51.053562-35.953213 184.29617 184.29617 0 0 1-35.953213-53.570287A159.632266 159.632266 0 0 1 0.003599 854.444647V152.637928a114.618843 114.618843 0 0 1 13.87794-52.275972A194.147351 194.147351 0 0 1 49.762846 51.249867 202.919935 202.919935 0 0 1 99.522093 14.57759a118.71751 118.71751 0 0 1 55.439854-14.381285h293.593938a52.275972 52.275972 0 0 1 49.759247 25.814407 105.846259 105.846259 0 0 1 14.381285 52.275971 99.087055 99.087055 0 0 1-14.381285 51.053563 52.995036 52.995036 0 0 1-49.759247 24.591998H217.951976a54.792697 54.792697 0 0 0-43.143855 18.264232 64.715784 64.715784 0 0 0-16.394665 44.725797v592.149419a58.459924 58.459924 0 0 0 16.394665 42.209072 56.806077 56.806077 0 0 0 43.143855 17.041823h583.304929a65.434848 65.434848 0 0 0 45.372955-17.041823 54.505071 54.505071 0 0 0 18.91139-42.209072v-234.414949a54.289352 54.289352 0 0 1 8.197333-30.200699 65.938193 65.938193 0 0 1 20.133799-20.133799 81.541887 81.541887 0 0 1 26.533471-10.785964 133.242608 133.242608 0 0 1 28.331132-2.876257z" fill="" p-id="1181"></path></svg>